<mxfile host="app.diagrams.net" modified="2024-04-07T14:31:27.989Z" agent="Mozilla/5.0 (Macintosh; Intel Mac OS X 10_15_7) AppleWebKit/537.36 (KHTML, like Gecko) Chrome/123.0.0.0 Safari/537.36" etag="-Xd3RG6qhl-rK-6pTMNH" version="24.2.2" type="github">
  <diagram id="R2lEEEUBdFMjLlhIrx00" name="Page-1">
    <mxGraphModel dx="851" dy="615" grid="1" gridSize="10" guides="1" tooltips="1" connect="1" arrows="1" fold="1" page="1" pageScale="1" pageWidth="850" pageHeight="1100" math="0" shadow="0" extFonts="Permanent Marker^https://fonts.googleapis.com/css?family=Permanent+Marker">
      <root>
        <mxCell id="0" />
        <mxCell id="1" parent="0" />
        <mxCell id="IDAnfpPjTxUCIpMPz0pZ-20" value="" style="edgeStyle=none;rounded=0;orthogonalLoop=1;jettySize=auto;html=1;" edge="1" parent="1" source="IDAnfpPjTxUCIpMPz0pZ-1" target="IDAnfpPjTxUCIpMPz0pZ-18">
          <mxGeometry relative="1" as="geometry" />
        </mxCell>
        <mxCell id="IDAnfpPjTxUCIpMPz0pZ-21" value="" style="edgeStyle=none;rounded=0;orthogonalLoop=1;jettySize=auto;html=1;" edge="1" parent="1" source="IDAnfpPjTxUCIpMPz0pZ-1" target="IDAnfpPjTxUCIpMPz0pZ-17">
          <mxGeometry relative="1" as="geometry">
            <mxPoint x="340" y="360" as="targetPoint" />
          </mxGeometry>
        </mxCell>
        <mxCell id="IDAnfpPjTxUCIpMPz0pZ-24" style="edgeStyle=none;rounded=0;orthogonalLoop=1;jettySize=auto;html=1;exitX=0;exitY=1;exitDx=0;exitDy=0;entryX=1;entryY=0.5;entryDx=0;entryDy=0;" edge="1" parent="1" source="IDAnfpPjTxUCIpMPz0pZ-1" target="IDAnfpPjTxUCIpMPz0pZ-19">
          <mxGeometry relative="1" as="geometry" />
        </mxCell>
        <mxCell id="IDAnfpPjTxUCIpMPz0pZ-1" value="" style="whiteSpace=wrap;html=1;" vertex="1" parent="1">
          <mxGeometry x="360" y="290" width="120" height="60" as="geometry" />
        </mxCell>
        <mxCell id="IDAnfpPjTxUCIpMPz0pZ-2" value="cliente" style="text;strokeColor=none;align=center;fillColor=none;html=1;verticalAlign=middle;whiteSpace=wrap;rounded=0;" vertex="1" parent="1">
          <mxGeometry x="390" y="305" width="60" height="30" as="geometry" />
        </mxCell>
        <mxCell id="IDAnfpPjTxUCIpMPz0pZ-5" value="" style="edgeStyle=segmentEdgeStyle;endArrow=classic;html=1;curved=0;rounded=0;endSize=8;startSize=8;sourcePerimeterSpacing=0;targetPerimeterSpacing=0;" edge="1" parent="1">
          <mxGeometry width="100" relative="1" as="geometry">
            <mxPoint x="480" y="320" as="sourcePoint" />
            <mxPoint x="580" y="360" as="targetPoint" />
            <Array as="points">
              <mxPoint x="530" y="360" />
            </Array>
          </mxGeometry>
        </mxCell>
        <mxCell id="IDAnfpPjTxUCIpMPz0pZ-26" style="edgeStyle=none;rounded=0;orthogonalLoop=1;jettySize=auto;html=1;exitX=0;exitY=0.75;exitDx=0;exitDy=0;" edge="1" parent="1" source="IDAnfpPjTxUCIpMPz0pZ-8" target="IDAnfpPjTxUCIpMPz0pZ-11">
          <mxGeometry relative="1" as="geometry" />
        </mxCell>
        <mxCell id="IDAnfpPjTxUCIpMPz0pZ-27" style="edgeStyle=none;rounded=0;orthogonalLoop=1;jettySize=auto;html=1;exitX=0.25;exitY=1;exitDx=0;exitDy=0;entryX=0.5;entryY=0;entryDx=0;entryDy=0;" edge="1" parent="1" source="IDAnfpPjTxUCIpMPz0pZ-8" target="IDAnfpPjTxUCIpMPz0pZ-12">
          <mxGeometry relative="1" as="geometry" />
        </mxCell>
        <mxCell id="IDAnfpPjTxUCIpMPz0pZ-29" style="edgeStyle=none;rounded=0;orthogonalLoop=1;jettySize=auto;html=1;exitX=1;exitY=0.5;exitDx=0;exitDy=0;entryX=0;entryY=0;entryDx=0;entryDy=0;" edge="1" parent="1" source="IDAnfpPjTxUCIpMPz0pZ-8" target="IDAnfpPjTxUCIpMPz0pZ-14">
          <mxGeometry relative="1" as="geometry" />
        </mxCell>
        <mxCell id="IDAnfpPjTxUCIpMPz0pZ-8" value="pedidos" style="rounded=0;whiteSpace=wrap;html=1;" vertex="1" parent="1">
          <mxGeometry x="360" y="420" width="120" height="60" as="geometry" />
        </mxCell>
        <mxCell id="IDAnfpPjTxUCIpMPz0pZ-9" value="artÃ­culos" style="rounded=0;whiteSpace=wrap;html=1;" vertex="1" parent="1">
          <mxGeometry x="360" y="160" width="120" height="60" as="geometry" />
        </mxCell>
        <mxCell id="IDAnfpPjTxUCIpMPz0pZ-10" value="" style="ellipse;whiteSpace=wrap;html=1;" vertex="1" parent="1">
          <mxGeometry x="200" y="440" width="120" height="50" as="geometry" />
        </mxCell>
        <mxCell id="IDAnfpPjTxUCIpMPz0pZ-11" value="" style="ellipse;whiteSpace=wrap;html=1;" vertex="1" parent="1">
          <mxGeometry x="240" y="500" width="120" height="50" as="geometry" />
        </mxCell>
        <mxCell id="IDAnfpPjTxUCIpMPz0pZ-12" value="" style="ellipse;whiteSpace=wrap;html=1;" vertex="1" parent="1">
          <mxGeometry x="320" y="550" width="120" height="50" as="geometry" />
        </mxCell>
        <mxCell id="IDAnfpPjTxUCIpMPz0pZ-13" value="" style="ellipse;whiteSpace=wrap;html=1;" vertex="1" parent="1">
          <mxGeometry x="420" y="510" width="120" height="50" as="geometry" />
        </mxCell>
        <mxCell id="IDAnfpPjTxUCIpMPz0pZ-14" value="" style="ellipse;whiteSpace=wrap;html=1;" vertex="1" parent="1">
          <mxGeometry x="490" y="460" width="120" height="50" as="geometry" />
        </mxCell>
        <mxCell id="IDAnfpPjTxUCIpMPz0pZ-15" value="" style="ellipse;whiteSpace=wrap;html=1;" vertex="1" parent="1">
          <mxGeometry x="220" y="250" width="100" height="40" as="geometry" />
        </mxCell>
        <mxCell id="IDAnfpPjTxUCIpMPz0pZ-16" value="" style="ellipse;whiteSpace=wrap;html=1;" vertex="1" parent="1">
          <mxGeometry x="220" y="210" width="100" height="40" as="geometry" />
        </mxCell>
        <mxCell id="IDAnfpPjTxUCIpMPz0pZ-17" value="" style="ellipse;whiteSpace=wrap;html=1;" vertex="1" parent="1">
          <mxGeometry x="220" y="290" width="100" height="40" as="geometry" />
        </mxCell>
        <mxCell id="IDAnfpPjTxUCIpMPz0pZ-18" value="" style="ellipse;whiteSpace=wrap;html=1;" vertex="1" parent="1">
          <mxGeometry x="220" y="330" width="100" height="40" as="geometry" />
        </mxCell>
        <mxCell id="IDAnfpPjTxUCIpMPz0pZ-19" value="" style="ellipse;whiteSpace=wrap;html=1;" vertex="1" parent="1">
          <mxGeometry x="220" y="370" width="100" height="40" as="geometry" />
        </mxCell>
        <mxCell id="IDAnfpPjTxUCIpMPz0pZ-22" style="edgeStyle=none;rounded=0;orthogonalLoop=1;jettySize=auto;html=1;exitX=0;exitY=0.25;exitDx=0;exitDy=0;entryX=0.99;entryY=0.675;entryDx=0;entryDy=0;entryPerimeter=0;" edge="1" parent="1" source="IDAnfpPjTxUCIpMPz0pZ-1" target="IDAnfpPjTxUCIpMPz0pZ-15">
          <mxGeometry relative="1" as="geometry" />
        </mxCell>
        <mxCell id="IDAnfpPjTxUCIpMPz0pZ-23" style="edgeStyle=none;rounded=0;orthogonalLoop=1;jettySize=auto;html=1;exitX=0;exitY=0;exitDx=0;exitDy=0;entryX=1.01;entryY=0.725;entryDx=0;entryDy=0;entryPerimeter=0;" edge="1" parent="1" source="IDAnfpPjTxUCIpMPz0pZ-1" target="IDAnfpPjTxUCIpMPz0pZ-16">
          <mxGeometry relative="1" as="geometry" />
        </mxCell>
        <mxCell id="IDAnfpPjTxUCIpMPz0pZ-25" style="edgeStyle=none;rounded=0;orthogonalLoop=1;jettySize=auto;html=1;exitX=0;exitY=0.25;exitDx=0;exitDy=0;entryX=1;entryY=0;entryDx=0;entryDy=0;" edge="1" parent="1" source="IDAnfpPjTxUCIpMPz0pZ-8" target="IDAnfpPjTxUCIpMPz0pZ-10">
          <mxGeometry relative="1" as="geometry" />
        </mxCell>
        <mxCell id="IDAnfpPjTxUCIpMPz0pZ-28" style="edgeStyle=none;rounded=0;orthogonalLoop=1;jettySize=auto;html=1;exitX=0.75;exitY=1;exitDx=0;exitDy=0;entryX=0.283;entryY=0.04;entryDx=0;entryDy=0;entryPerimeter=0;" edge="1" parent="1" source="IDAnfpPjTxUCIpMPz0pZ-8" target="IDAnfpPjTxUCIpMPz0pZ-13">
          <mxGeometry relative="1" as="geometry" />
        </mxCell>
      </root>
    </mxGraphModel>
  </diagram>
</mxfile>
